<svg width="32" height="32" viewBox="0 0 32 32" fill="none" xmlns="http://www.w3.org/2000/svg">
<path d="M27.8174 0.900391L27.9297 0.911133C28.1825 0.960683 28.3721 1.17462 28.3721 1.44141V12.3701H30.5449C30.5631 12.3701 30.578 12.3746 30.585 12.377C30.5885 12.3782 30.5911 12.3802 30.5928 12.3809H30.5938C30.6117 12.3818 30.6302 12.3831 30.6475 12.3867L30.7031 12.4023L30.7168 12.4062L30.7158 12.4072C30.7263 12.4123 30.7463 12.419 30.7764 12.4287C30.8121 12.4403 30.8447 12.4615 30.8711 12.4834H30.8721C30.8915 12.4959 30.9235 12.5183 30.9521 12.5498L30.9873 12.5752L31.0146 12.6143C31.0191 12.6241 31.0222 12.6335 31.0234 12.6377L31.0254 12.6455L31.0283 12.6514L31.043 12.6855L31.0674 12.7383L31.0703 12.7451L30.9727 12.7705L31.0693 12.7461C31.0752 12.7691 31.079 12.7897 31.0811 12.8027C31.0833 12.8169 31.0845 12.8221 31.0859 12.8262L31.0908 12.8418V12.8535C31.091 12.8545 31.0917 12.8562 31.0928 12.8604C31.0938 12.8643 31.0952 12.872 31.0967 12.8799C31.0983 12.8881 31.0996 12.8994 31.0996 12.9121V30.5586C31.0996 30.8637 30.8519 31.0996 30.5449 31.0996H1.44629C1.14015 31.0996 0.889028 30.8634 0.900391 30.5547V12.9121L0.90332 12.8799C0.904853 12.8719 0.907202 12.8642 0.908203 12.8604L0.90918 12.8584C0.909267 12.8152 0.922607 12.7675 0.932617 12.7383C0.94062 12.715 0.953264 12.6811 0.975586 12.6455H0.974609C0.975633 12.6435 0.976503 12.6426 0.978516 12.6367C0.980188 12.6319 0.983498 12.625 0.987305 12.6162C0.990617 12.6049 0.99547 12.5933 1.00293 12.583L1.03027 12.5576L1.03125 12.5586C1.05916 12.5247 1.09151 12.5003 1.11328 12.4863C1.13186 12.4687 1.16249 12.4428 1.20605 12.4287L1.28809 12.4023L1.29492 12.3994L1.40918 12.3799C1.40103 12.3799 1.39453 12.3818 1.39453 12.3818C1.39542 12.3815 1.39608 12.3818 1.39844 12.3809C1.40008 12.3802 1.40276 12.3782 1.40625 12.377C1.4132 12.3746 1.42813 12.3701 1.44629 12.3701H3.61914V1.44141C3.61914 1.13634 3.8669 0.900456 4.17383 0.900391H27.8174ZM16.3281 23.9316L16.3291 23.9326C16.228 24.0089 16.1143 24.041 15.9951 24.041C15.8761 24.0409 15.7631 24.0088 15.6621 23.9326V23.9316L2.00098 13.9902V30.0176H29.9902V13.9902L16.3281 23.9316ZM4.72852 14.625L15.9951 22.8281L20.5107 19.5371L27.2627 14.625V1.98242H4.72852V14.625ZM24.1797 15.0176C24.4866 15.0176 24.7343 15.2536 24.7344 15.5586C24.7344 15.8637 24.4867 16.0996 24.1797 16.0996H7.81152C7.50454 16.0996 7.25684 15.8637 7.25684 15.5586C7.25696 15.2536 7.50462 15.0176 7.81152 15.0176H24.1797ZM3.61914 13.8174V13.4531H3.11719L3.61914 13.8174ZM28.3721 13.8174L28.874 13.4531H28.3721V13.8174ZM24.1797 11.4883C24.4866 11.4883 24.7343 11.7242 24.7344 12.0293C24.7344 12.3344 24.4867 12.5703 24.1797 12.5703H7.81152C7.50454 12.5703 7.25684 12.3344 7.25684 12.0293C7.2569 11.7242 7.50458 11.4883 7.81152 11.4883H24.1797ZM30.959 12.5586L30.9609 12.5576C30.958 12.5548 30.9546 12.5525 30.9521 12.5508C30.9545 12.5534 30.9567 12.5559 30.959 12.5586ZM24.1797 7.95898C24.4867 7.95898 24.7344 8.19489 24.7344 8.5C24.7344 8.80511 24.4867 9.04102 24.1797 9.04102H7.81152C7.50454 9.04102 7.25684 8.80511 7.25684 8.5C7.25684 8.19489 7.50454 7.95898 7.81152 7.95898H24.1797ZM18.7236 4.42969C19.0306 4.42969 19.2783 4.6656 19.2783 4.9707C19.2783 5.27576 19.0306 5.51172 18.7236 5.51172H7.81152C7.50458 5.51172 7.2569 5.27576 7.25684 4.9707C7.25684 4.6656 7.50454 4.42969 7.81152 4.42969H18.7236Z" fill="white" stroke="white" stroke-width="0.2"/>
</svg>
